<?xml version="1.0" encoding="UTF-8"?>
<svg id="katman_1" data-name="katman 1" xmlns="http://www.w3.org/2000/svg" viewBox="0 0 1080.44 1080.44">
  <defs>
    <style>
      .cls-1 {
        fill: #001e36;
      }

      .cls-1, .cls-2 {
        stroke-width: 0px;
      }

      .cls-2 {
        fill: #31a8ff;
      }
    </style>
  </defs>
  <rect class="cls-1" width="1080.44" height="1080.44" rx="253.23" ry="253.23"/>
  <g id="Lr">
    <path class="cls-2" d="m541.97,775.58h-283c-5.02,0-7.11-2.51-7.11-7.94v-456.48c-.42-2.93,1.67-5.85,5.02-6.27h89.04c2.09-.42,5.02,1.25,5.02,3.76v376.22h206.5c4.6,0,5.85,2.09,5.02,6.27l-12.96,77.75c0,2.09-1.25,4.18-2.51,5.43-1.67.84-3.34,1.25-5.02,1.25Z"/>
    <path class="cls-2" d="m613.45,418.17h78.17c4.6,0,7.94,2.93,9.2,7.11,1.67,2.93,2.93,6.69,3.76,10.45.84,4.6,1.67,9.2,2.09,13.79.42,5.02.84,10.45.84,15.88,13.38-15.47,29.68-28.43,47.65-38.46,20.48-11.29,43.47-16.72,66.47-15.88,2.93-.42,5.85,1.67,6.27,5.02v89.04c0,3.76-2.09,5.02-7.11,5.02-28.84-1.67-58.11,3.76-84.44,15.05-8.78,4.18-17.56,9.2-24.25,16.72v227.82c0,4.6-1.67,6.27-5.85,6.27h-86.95c-3.76.42-6.69-1.67-7.11-5.43v-249.14c0-10.87,0-21.74-.42-33.44-.42-11.7-.42-23.41-.84-34.7-.42-10.03-1.25-19.65-2.51-29.68-.42-2.09.84-4.6,2.93-5.02.84-.84,1.25-.84,2.09-.42h0Z"/>
  </g>
</svg>