<?xml version="1.0" encoding="UTF-8"?>
<svg id="Layer_1" data-name="Layer 1" xmlns="http://www.w3.org/2000/svg" viewBox="0 0 1080.44 1080.44">
  <defs>
    <style>
      .cls-1 {
        fill: #323437;
      }

      .cls-1, .cls-2 {
        stroke-width: 0px;
      }

      .cls-2 {
        fill: #e2b714;
      }
    </style>
  </defs>
  <rect class="cls-1" width="1080.44" height="1080.44" rx="253.23" ry="253.23"/>
  <g>
    <path class="cls-2" d="m807.7,620.46c14.76,0,26.75,11.99,26.75,26.75s-11.99,26.75-26.75,26.75-26.75-11.99-26.75-26.75,11.99-26.75,26.75-26.75Zm-374.47,0h160.49c14.76,0,26.75,11.99,26.75,26.75s-11.99,26.75-26.75,26.75h-160.49c-14.76,0-26.75-11.99-26.75-26.75s11.99-26.75,26.75-26.75Zm-53.5-160.49c14.76,0,26.75,11.99,26.75,26.75v53.5c0,14.76-11.99,26.75-26.75,26.75s-26.75-11.99-26.75-26.75v-53.5c0-14.76,11.99-26.75,26.75-26.75Z"/>
    <path class="cls-2" d="m246.02,485.35c.73-43.66,36.39-78.87,80.22-78.87,20.54,0,39.29,7.74,53.5,20.45,14.7-13.19,33.75-20.47,53.5-20.45,43.83,0,79.49,35.21,80.22,78.87.02.45.02.92.02,1.38v53.5c0,14.76-11.99,26.75-26.75,26.75s-26.75-11.99-26.75-26.75v-53.5c0-14.76-11.99-26.75-26.75-26.75s-26.75,11.99-26.75,26.75v53.5c0,14.76-11.99,26.75-26.75,26.75s-26.75-11.99-26.75-26.75v-53.5c0-14.76-11.99-26.75-26.75-26.75s-26.75,11.99-26.75,26.75v53.5c0,14.76-11.99,26.75-26.75,26.75s-26.75-11.99-26.75-26.75v-53.5c0-.46.01-.92.02-1.38Zm481.44,81.62v80.24c0,14.76-11.99,26.75-26.75,26.75s-26.75-11.99-26.75-26.75v-80.24h-77.09c-16.5,0-29.9-11.99-29.9-26.75s13.4-26.75,29.9-26.75h207.67c16.5,0,29.9,11.99,29.9,26.75s-13.4,26.75-29.9,26.75h-77.09Zm-26.75-160.49h106.99c14.76,0,26.75,11.99,26.75,26.75s-11.99,26.75-26.75,26.75h-106.99c-14.76,0-26.75-11.99-26.75-26.75s11.99-26.75,26.75-26.75Zm-427.97,213.98h53.5c14.76,0,26.75,11.99,26.75,26.75s-11.99,26.75-26.75,26.75h-53.5c-14.76,0-26.75-11.99-26.75-26.75s11.99-26.75,26.75-26.75Zm307.6-213.98h13.37c14.76,0,26.75,11.99,26.75,26.75s-11.99,26.75-26.75,26.75h-13.37c-14.76,0-26.75-11.99-26.75-26.75s11.99-26.75,26.75-26.75Z"/>
    <path class="cls-2" d="m192.5,620.46h-53.5v-187.24c0-73.81,59.93-133.74,133.74-133.74h534.96c73.81,0,133.74,59.93,133.74,133.74v213.98c0,73.81-59.93,133.74-133.74,133.74H272.74c-73.81,0-133.74-59.93-133.74-133.74v-53.5h53.5v53.5c0,44.29,35.96,80.24,80.24,80.24h534.96c44.29,0,80.24-35.96,80.24-80.24v-213.98c0-44.29-35.96-80.24-80.24-80.24H272.74c-44.29,0-80.24,35.96-80.24,80.24v187.24Z"/>
  </g>
</svg>